<?xml version="1.0" encoding="UTF-8"?>
<svg width="1574px" height="140px" viewBox="0 0 1574 140" version="1.1" xmlns="http://www.w3.org/2000/svg" xmlns:xlink="http://www.w3.org/1999/xlink">
    <!-- Generator: Sketch 46.2 (44496) - http://www.bohemiancoding.com/sketch -->
    <title>itmo_ru</title>
    <desc>Created with Sketch.</desc>
    <defs></defs>
    <g id="Page-1" stroke="none" stroke-width="1" fill="none" fill-rule="evenodd">
        <g id="itmo_ru" fill-rule="nonzero">
            <g id="Group" transform="translate(787.000000, 70.000000) scale(-1, 1) rotate(-180.000000) translate(-787.000000, -70.000000) translate(0.000000, -0.000000)">
                <path d="M252.3,139.3 C251.1,139.1 248.9,137.5 247.4,135.7 C245.2,133.1 244.9,131.9 245.3,128.6 C246.9,117 263.1,117 264.7,128.6 C265.2,132.2 264.8,133.1 262.4,135.8 C259.4,138.9 256.2,140 252.3,139.3 Z" id="Shape" fill="#2047A6"></path>
                <path d="M48.4,123.1 C45.7,121.9 41.2,116.5 40.4,113.4 C38.8,107 42.1,99.8 48.1,96.8 C54.7,93.4 62.5,95.5 66.8,102 C68.8,104.9 69.1,106.4 68.8,110.8 C68.4,115.3 67.8,116.7 64.7,119.7 C61.7,122.8 60.4,123.4 55.8,123.7 C52.9,123.8 49.6,123.6 48.4,123.1 Z" id="Shape" fill="#2047A6"></path>
                <path d="M207.5,122.1 C203,119.4 200.8,115.4 200.7,110 C200.6,103.5 203.4,99 209.2,96.6 C215.5,94 220.2,95 225.2,100 C228.6,103.4 229,104.3 229,108.9 C229,115.2 227,119.4 222.7,122 C218.6,124.6 211.5,124.6 207.5,122.1 Z" id="Shape" fill="#2047A6"></path>
                <path d="M287.3,122 C283,119.4 281,115.2 281,108.9 C281,104.3 281.4,103.4 284.8,100 C289.8,95 294.5,94 300.8,96.6 C306.5,99 309.4,103.5 309.4,110.1 C309.4,115.5 307.3,119.2 302.7,122 C298.5,124.6 291.5,124.6 287.3,122 Z" id="Shape" fill="#2047A6"></path>
                <path d="M129.2,118.3 C127.3,117.6 125,112.5 125,109 C125,106.9 125.9,104.9 127.9,102.9 C135.6,95.3 147.8,103.4 143.6,113.3 C142.8,115.3 141.3,117.3 140.2,117.9 C138.1,119 131.5,119.3 129.2,118.3 Z" id="Shape" fill="#2047A6"></path>
                <path d="M872.1,109.9 C854.6,106.5 844,91.2 844,69.5 C844,52.1 850.8,38.2 862.1,32.4 C874.8,26 896.9,28 905.7,36.2 C910.4,40.6 907.4,50 901.8,48.7 C900.5,48.4 896.6,47 893.1,45.5 C885.2,42.2 875.8,42.2 871.3,45.6 C860.4,53.7 857,70.5 863.4,84.5 C868.5,95.8 878.4,99 893.2,94.4 C900.1,92.2 904.2,92.8 905.9,96.4 C907.1,99 907.1,99.7 905.9,101.9 C902,108.7 885.8,112.6 872.1,109.9 Z" id="Shape" fill="#2047A6"></path>
                <path d="M1526,109.9 C1510.6,106.9 1500.4,95 1497.8,77.1 C1494.9,57.6 1502.9,39.1 1517,32.2 C1523.3,29.2 1533.9,27.9 1542.3,29 C1559.2,31.4 1570.6,43.8 1573,62.1 C1577,94.4 1556,115.8 1526,109.9 Z M1544.5,94.8 C1552.1,90.9 1557,81.3 1557,70.1 C1557,53.2 1548.9,42.9 1535.6,42.9 C1526.1,42.9 1520.1,47 1515.9,56.5 C1512.6,63.9 1512.8,75.8 1516.3,83.1 C1519.3,89.5 1520.6,91 1524.3,93.5 C1529.6,96.9 1539.1,97.5 1544.5,94.8 Z" id="Shape" fill="#2047A6"></path>
                <path d="M445.3,108.9 C444.1,108.5 442.4,107.1 441.6,105.8 C440.3,103.9 430.7,81.4 425.9,69.1 C425,66.9 423.9,68.4 414.2,85.8 C408.3,96.4 402.7,105.9 401.8,107 C399.5,109.6 393.9,109.7 391.7,107.2 C388,103.2 389.4,99.6 403.7,74.7 L417.4,50.8 L415.5,47.4 C413.3,43.3 410.4,42.4 404.6,44 C399.3,45.5 396.7,44.8 395.2,41.4 C393.4,37.6 393.7,35.5 396.6,32.7 C399.5,29.8 404.1,28.5 411.2,28.7 C422.2,29 426.4,34.8 442.3,72 C453.9,99.3 455.7,105.4 452.8,107.7 C450.8,109.3 447.6,109.8 445.3,108.9 Z" id="Shape" fill="#2047A6"></path>
                <path d="M470.7,109.3 C466.4,108.1 466,105 466,70.1 C466,30.4 466.1,30 474.7,30 C481.3,30 482,31.7 482,48.7 L482,63 L499,63 L516,63 L516,48.7 C516,31.7 516.7,30 523.4,30 C531.2,30 531,28.8 531,69.6 C531,89.3 530.6,106 530.2,106.6 C528.8,108.8 524.9,110.1 521.9,109.5 C516.7,108.3 516,106 516,90.8 L516,77 L499,77 L482,77 L482,90.9 C482,102.6 481.7,105.1 480.3,106.9 C478.5,109 473.9,110.2 470.7,109.3 Z" id="Shape" fill="#2047A6"></path>
                <path d="M555.3,109 C554.1,108.5 552.7,107.2 552.1,106.1 C551.4,104.8 551,92 551,69.3 C551,29.8 551,30 557.9,30 C560.2,30 562.6,30.7 563.7,31.8 C564.8,32.7 573.5,44.3 583.1,57.4 L600.5,81.3 L600.8,57.5 C601.1,30.2 601.1,30 608.6,30 C616.1,30 616,29.3 616,70.2 C616,108.9 616.1,108.2 610.5,109.6 C605.8,110.8 602.9,107.8 585.1,83.1 L567.5,58.8 L567,81.6 C566.7,94.2 566.1,105.2 565.7,106.1 C564.9,107.8 560.8,110 558.7,109.9 C558,109.9 556.5,109.5 555.3,109 Z" id="Shape" fill="#2047A6"></path>
                <path d="M644.3,109.1 C642,108.7 639.2,107.5 638,106.5 C636,104.7 636,103.8 636.2,69.2 L636.5,33.7 L639.1,31.8 C641.1,30.3 644,29.8 654.2,29.3 C671.7,28.5 681.4,30.5 687.8,36.4 C697.5,45.1 696.3,64.6 685.9,70.5 L682.2,72.5 L684.6,74.3 C692,79.9 692.9,94.3 686.3,102.1 C681.5,107.8 676.2,109.4 661.5,109.6 C654.4,109.8 646.6,109.5 644.3,109.1 Z M667.2,96 C673.9,94.1 676.7,88.1 673.6,82.1 C671.6,78.2 668.1,77 659,77 L651,77 L651,86.3 C651,91.5 651.3,96 651.7,96.3 C652.7,97.4 663.1,97.1 667.2,96 Z M672.5,62.6 C679.1,59.8 680.8,51 675.6,46.1 C672.6,43.3 667.9,42 660.3,42 C650.7,42 651,41.7 651,53.6 L651,64 L660,64 C665.6,64 670.4,63.5 672.5,62.6 Z" id="Shape" fill="#2047A6"></path>
                <path d="M716,109.3 C715.2,109 713.7,108.1 712.8,107.2 C711.1,105.8 711,102.7 711,70.1 C711,39.4 711.2,34.1 712.6,32.2 C714.1,30 714.5,30 738,30 C765.2,30 765.3,30 764.8,37.3 C764.4,43.4 762.6,44 742.8,44 L726,44 L726,54 L726,64 L740.3,64 C756.3,64 758,64.7 758,70.6 C758,76.9 755.2,78 739.1,78 L726,78 L726,87 L726,96 L743.4,96 C757.9,96 761.1,96.3 762.4,97.6 C764.4,99.5 764.5,105 762.6,107.6 C761.3,109.4 759.7,109.5 739.3,109.7 C727.3,109.8 716.8,109.6 716,109.3 Z" id="Shape" fill="#2047A6"></path>
                <path d="M787,109 C778.8,107.3 779,108.5 779,68.5 C779,28.8 778.8,30 786.7,30 C793.2,30 794,31.7 794,45.2 L794,56.8 L804.3,57.2 C813,57.5 815.4,57.9 820.2,60.3 C830.8,65.5 834.6,72.9 833.8,87 C833.2,97.5 830.3,102.1 821.5,106.5 C815.9,109.3 814.6,109.5 803.5,109.7 C796.9,109.8 789.5,109.5 787,109 Z M812.8,94 C818,90.8 819.7,83.1 816.5,77 C814,72.1 805.8,69.4 797.8,70.7 L794,71.3 L794,83.6 L794,96 L801.8,96 C807.7,96 810.2,95.5 812.8,94 Z" id="Shape" fill="#2047A6"></path>
                <path d="M927.3,109 C926.1,108.5 924.7,107.2 924.1,106.1 C923.4,104.8 923,92 923,69.3 C923,29.8 923,30 929.9,30 C932.2,30 934.6,30.7 935.8,31.8 C936.9,32.7 945.6,44.3 955.1,57.4 L972.5,81.3 L972.8,57.5 C973.1,30.3 973.2,30 980.5,30 C988.2,30 988,28.9 988,69.6 C988,110.3 988.1,109.5 981,109.5 C975.8,109.5 977.1,110.8 956,81.6 L939.5,58.7 L939,81.6 C938.7,94.2 938.1,105.3 937.6,106.3 C936.7,108.1 933,110.1 930.7,109.9 C930,109.9 928.5,109.5 927.3,109 Z" id="Shape" fill="#2047A6"></path>
                <path d="M1003.5,108.8 C1000.7,107.2 1000,106 1000,102.4 C1000,97 1002.2,96 1014.8,96 L1026,96 L1026,65.9 C1026,36.3 1026.3,32.8 1029.4,30.8 C1031.3,29.5 1037.5,29.9 1039.6,31.4 C1041.4,32.8 1041.5,34.5 1041.8,64.4 L1042.1,96 L1053.5,96 C1066.8,96 1068.3,96.7 1067.8,103.3 C1067.6,106.6 1067,107.7 1065,108.7 C1061.6,110.4 1006.5,110.5 1003.5,108.8 Z" id="Shape" fill="#2047A6"></path>
                <path d="M1084.3,109 C1083.1,108.5 1081.7,107.2 1081.1,106.1 C1080.4,104.8 1080,92 1080,69.1 C1080,35.3 1080.1,33.9 1082,32 C1083.9,30.1 1085.3,30 1107.9,30 C1131.6,30 1131.9,30 1133.4,32.2 C1135.5,35.2 1135.4,38.3 1133.1,41.1 C1131.2,43.4 1130.7,43.5 1113.6,43.8 L1096,44.1 L1096,54.1 L1096,64 L1109.8,64 C1125.8,64 1127.4,64.7 1126.8,71.6 C1126.4,77.2 1124.1,78 1108.8,78 L1096,78 L1096,87 L1096,96 L1113.7,96.2 L1131.5,96.5 L1132.8,99.3 C1134.5,102.8 1133.2,107 1129.9,108.7 C1127.1,110.2 1087.8,110.4 1084.3,109 Z" id="Shape" fill="#2047A6"></path>
                <path d="M1141.6,107.9 C1138.6,105.5 1138.2,101.6 1140.6,98.2 C1142,96.1 1142.8,96 1154.1,96 L1166,96 L1166,64.7 C1166,29.2 1165.8,30 1173.8,30 C1181,30 1181,30 1181,65.2 L1181,95.9 L1193.2,96.2 L1205.5,96.5 L1206.9,99.4 C1208.6,103.1 1207.4,107 1204,108.7 C1202.2,109.6 1193.8,110 1172.9,110 C1145.4,110 1144.2,109.9 1141.6,107.9 Z" id="Shape" fill="#2047A6"></path>
                <path d="M1255.3,109 C1254.1,108.5 1252.7,107.2 1252.1,106.1 C1251.4,104.8 1251,92 1251,69.3 C1251,29.9 1251,30 1257.9,30 C1260.1,30 1262.4,30.7 1263.6,31.8 C1264.7,32.8 1273.4,44.4 1283,57.5 L1300.5,81.4 L1300.8,57.5 C1301.1,30.2 1301.1,30 1308.6,30 C1316.1,30 1316,29.3 1316,70.1 L1316,105.9 L1313.3,108 C1310.4,110.2 1306.1,110.2 1303.4,107.9 C1302.7,107.3 1294.1,95.7 1284.3,82.2 L1266.5,57.5 L1266,82.2 C1265.7,95.7 1265.3,107 1265,107.3 C1263.8,108.4 1260,110 1258.8,109.9 C1258.1,109.9 1256.5,109.5 1255.3,109 Z" id="Shape" fill="#2047A6"></path>
                <path d="M1331,108.7 C1329,107.7 1328.4,106.6 1328.2,103.3 C1327.7,96.7 1329.1,96 1342.6,96 L1354,96 L1354,65 C1354,35.3 1354.1,33.9 1356,32 C1357.3,30.7 1359.3,30 1361.8,30 C1369.9,30 1370,30.7 1370,65.9 L1370,96 L1381.3,96 C1391.1,96 1392.9,96.3 1394.3,97.8 C1396.4,100.1 1396.5,104.9 1394.6,107.6 C1393.2,109.4 1391.5,109.5 1363.3,109.8 C1340.6,110 1332.9,109.7 1331,108.7 Z" id="Shape" fill="#2047A6"></path>
                <path d="M1411.3,109 C1410.1,108.5 1408.7,107.2 1408.1,106.1 C1407.4,104.8 1407,92 1407,69.3 C1407,29 1406.9,29.7 1414.8,30.2 C1421.7,30.6 1422,31.6 1422,57 L1422,78.5 L1429.1,67.5 C1433,61.5 1437.1,55.5 1438.3,54.3 C1440.6,51.7 1445.6,51.2 1448.3,53.3 C1449.2,53.9 1453.6,60.4 1458,67.5 L1466,80.5 L1466,56.9 C1466,30.1 1466,30 1473.8,30 C1481.1,30 1481,29.5 1481,69.8 L1481,105.1 L1478.4,107.7 C1476.4,109.7 1475.3,110.1 1472.7,109.6 C1468.4,108.7 1467.8,108 1456.5,89.5 C1451.1,80.7 1446.1,72.7 1445.5,71.8 C1444.5,70.3 1442.8,72.5 1433,88 C1426.8,97.9 1421,106.6 1420.1,107.4 C1417.9,109.4 1413.9,110.1 1411.3,109 Z" id="Shape" fill="#2047A6"></path>
                <path d="M9,103.3 C8.2,103 6.4,101.8 5.2,100.6 C-5.5,91 1.8,73.9 15.9,75.3 C29.8,76.8 33.7,94.7 21.8,102 C18.6,103.9 12.4,104.5 9,103.3 Z" id="Shape" fill="#2047A6"></path>
                <path d="M86.9,101.7 C77.5,95.4 78.1,81.8 88.1,76.8 C100.7,70.3 113.9,84.3 107.2,96.9 C103.5,103.8 93.5,106.1 86.9,101.7 Z" id="Shape" fill="#2047A6"></path>
                <path d="M167.3,102 C161,98.2 158.7,91.2 161.5,84.2 C165.5,74.2 177.9,72.1 185.5,80 C189.3,84 190.1,92.8 187.2,97.6 C183.4,103.6 173.5,105.8 167.3,102 Z" id="Shape" fill="#2047A6"></path>
                <path d="M247.3,102 C245.5,101 243.4,98.7 242.5,97.1 C240.5,93.1 240.6,85.5 242.8,81.8 C244.8,78.3 250.7,75 255,75 C259.3,75 265.2,78.3 267.3,81.8 C269.4,85.5 269.5,93.1 267.5,97.1 C265.3,101.3 260.4,104 255,104 C252.3,104 249.2,103.2 247.3,102 Z" id="Shape" fill="#2047A6"></path>
                <path d="M47.2,82 C40.5,77.9 38.2,70 41.8,63.1 C46.8,53.1 60.4,52.5 66.7,61.9 C74.9,74.1 59.8,89.7 47.2,82 Z" id="Shape" fill="#FF002E"></path>
                <path d="M126.9,81.7 C113.7,72.9 121.9,52.5 137.5,55.4 C139.5,55.8 142.8,57.6 144.7,59.4 C147.8,62.2 148.4,63.4 148.7,68.1 C149,72.1 148.6,74.4 147.2,76.9 C143.4,83.8 133.5,86.1 126.9,81.7 Z" id="Shape" fill="#2047A6"></path>
                <path d="M207.3,82 C198.2,76.5 198.6,61.9 208,56.9 C209.9,55.8 213,55 214.8,55 C219.3,55 225.1,58.2 227.3,61.8 C229.6,65.8 229.5,73.6 227.1,77.6 C223.4,83.6 213.5,85.9 207.3,82 Z" id="Shape" fill="#2047A6"></path>
                <path d="M288.3,76.6 C286,74.6 285.5,73.4 285.5,69.5 C285.5,63.5 289,60 295.1,60 C303.7,60 308,69.3 302.4,75.9 C300.2,78.5 299.1,79 295.5,79 C292.3,79 290.3,78.3 288.3,76.6 Z" id="Shape" fill="#2047A6"></path>
                <path d="M86.9,61.7 C77.5,55.4 78.1,41.8 88.1,36.8 C95,33.2 102.8,35.5 107.1,42.2 C109.9,46.8 109.3,55 105.9,58.6 C100.5,64.4 92.8,65.7 86.9,61.7 Z" id="Shape" fill="#2047A6"></path>
                <path d="M168.4,62.6 C157.8,58 157.9,40.8 168.6,36.4 C173.3,34.4 177.6,34.7 182,37.1 C186.8,39.8 189,43.7 189,49.5 C189,60.5 178.7,67 168.4,62.6 Z" id="Shape" fill="#2047A6"></path>
                <path d="M7.5,56.5 C5.6,54.7 5,53 5,49.5 C5,43.2 8.1,40 14.3,40 C20.5,40 24,43.5 24,49.7 C24,55.9 20.8,59 14.5,59 C11,59 9.3,58.4 7.5,56.5 Z" id="Shape" fill="#2047A6"></path>
                <path d="M248.3,56.6 C246,54.6 245.5,53.4 245.5,49.5 C245.5,43.5 249,40 255,40 C261,40 264.5,43.5 264.5,49.5 C264.5,55.5 261,59 255,59 C252.3,59 250.2,58.2 248.3,56.6 Z" id="Shape" fill="#2047A6"></path>
                <path d="M127.6,35.9 C125.9,34 125,31.6 125,29.5 C125,27.4 125.9,25 127.6,23.1 C129.7,20.6 130.9,20 134.2,20 C139.5,20 141.9,21.4 143.6,25.7 C144.8,28.4 144.9,29.9 144,32.6 C142.5,37 139.5,39 134.4,39 C130.9,39 129.7,38.5 127.6,35.9 Z" id="Shape" fill="#2047A6"></path>
                <path d="M207.9,36.1 C199.1,27.2 212.2,14.2 221.7,22.4 C224,24.4 224.5,25.6 224.5,29.5 C224.5,33.4 224,34.6 221.7,36.6 C217.6,40.1 211.8,39.9 207.9,36.1 Z" id="Shape" fill="#2047A6"></path>
                <path d="M87.6,15.9 C81.8,9 85.8,0 94.7,0 C100.9,0 104,3.2 104,9.5 C104,15.8 100.9,19 94.6,19 C90.9,19 89.8,18.5 87.6,15.9 Z" id="Shape" fill="#2047A6"></path>
                <path d="M167.9,16.1 C164.1,12.2 164,7.4 167.6,3.1 C169.7,0.5 170.9,0 174.5,0 C182.5,0 187.1,7 183.6,13.8 C180.4,19.9 172.8,21 167.9,16.1 Z" id="Shape" fill="#2047A6"></path>
            </g>
        </g>
    </g>
</svg>