<?xml version="1.0" encoding="UTF-8"?>
<svg width="1357px" height="139px" viewBox="0 0 1357 139" version="1.1" xmlns="http://www.w3.org/2000/svg" xmlns:xlink="http://www.w3.org/1999/xlink">
    <!-- Generator: Sketch 46.2 (44496) - http://www.bohemiancoding.com/sketch -->
    <title>itmo_en</title>
    <desc>Created with Sketch.</desc>
    <defs></defs>
    <g id="Page-1" stroke="none" stroke-width="1" fill="none" fill-rule="evenodd">
        <g id="itmo_en" transform="translate(0.000000, -1.000000)" fill-rule="nonzero">
            <g id="Group" transform="translate(678.500000, 70.000000) scale(-1, 1) rotate(-180.000000) translate(-678.500000, -70.000000) translate(0.000000, 0.500000)">
                <path d="M247.1,137.2 C242.3,134.4 240.8,128.7 243.5,123.6 C246.3,118.1 253.9,117.2 258.8,121.7 C262,124.8 261.9,132.3 258.6,135.4 C255.7,138.1 250.3,139 247.1,137.2 Z" id="Shape" fill="#2047A6"></path>
                <path d="M50.5,122.5 C45.7,121.4 43.1,119.3 40.9,114.8 C33.9,100.3 52.4,87.4 63.8,98.8 C73.8,108.8 64.3,125.8 50.5,122.5 Z" id="Shape" fill="#2047A6"></path>
                <path d="M208.2,122.5 C196.2,119.7 194.2,101.4 205.4,96.1 C216,91.1 226,97.5 226,109.4 C226,114.3 225.7,115.1 222.1,118.6 C220,120.8 217.3,122.5 216.2,122.5 C215.1,122.5 213.6,122.7 212.8,122.9 C212.1,123.1 210,122.9 208.2,122.5 Z" id="Shape" fill="#2047A6"></path>
                <path d="M286.7,122 C281.9,120.3 280,118.7 278.3,114.8 C274.5,105.6 279.9,95.8 289.4,94.8 C294.9,94.1 299.2,95.7 302.5,99.7 C311.6,110.6 300.3,126.7 286.7,122 Z" id="Shape" fill="#2047A6"></path>
                <path d="M128.1,117.1 C122.7,114.1 121.5,107.4 125.6,102.6 C127.8,99.9 128.9,99.5 132.9,99.5 C136.5,99.5 138.1,100 139.7,101.8 C142.6,105 143.3,108 142,112 C140.1,117.6 133.5,120.1 128.1,117.1 Z" id="Shape" fill="#2047A6"></path>
                <path d="M613.2,107.6 C598.4,102.5 590,88.6 590,69.1 C590,42.3 604.9,27.3 630.1,28.7 C646.1,29.7 656.5,36.9 662.1,51.2 C664.1,56.1 664.4,58.9 664.4,69 C664.4,79 664.1,81.9 662.2,86.5 C657.8,97.7 650.4,104.8 640,107.9 C632.7,110.1 620,109.9 613.2,107.6 Z M636.7,93.5 C648,88.4 652.5,68.2 645.5,53.9 C642,46.7 637,43.3 629.1,42.7 C614.8,41.7 606,51.9 606,69.5 C606,80.8 610.8,90.1 618.5,94 C622.7,96.1 631.6,95.9 636.7,93.5 Z" id="Shape" fill="#2047A6"></path>
                <path d="M1066,108.9 C1065.2,108.8 1062.3,108.3 1059.7,108 C1050.6,106.8 1051,108.4 1051,68.5 C1051,34.8 1051.1,33.4 1053,31.5 C1054.2,30.3 1056.3,29.5 1058.5,29.5 C1060.7,29.5 1062.8,30.3 1064,31.5 C1065.8,33.3 1066,34.8 1066,47 L1066,60.5 L1070.9,60.5 L1075.7,60.5 L1084,46.8 C1088.6,39.3 1093.2,32.3 1094.2,31.3 C1096.5,29 1101.1,29 1104,31.3 C1108.1,34.7 1107.1,39.2 1099.1,51.5 L1092,62.5 L1097.4,67.7 C1102.1,72.3 1103,73.8 1104,78.9 C1106.3,90.4 1102.1,101.3 1093.7,105.4 C1087.1,108.6 1072.9,110.4 1066,108.9 Z M1079.9,94.5 C1087.1,92.5 1090.1,86.9 1087.8,80 C1086,74.7 1081.6,72.5 1072.8,72.5 L1066,72.5 L1066,83.4 C1066,93 1066.2,94.4 1067.8,94.8 C1070.9,95.6 1076.5,95.5 1079.9,94.5 Z" id="Shape" fill="#2047A6"></path>
                <path d="M1136.1,108.1 C1126.7,105 1121.3,96.1 1122.3,85.4 C1123.2,74.7 1128.8,69.2 1143.7,64.1 C1152.3,61.2 1156.4,59.1 1159,56.3 C1163.1,51.9 1160.7,45.3 1154.2,43.5 C1148.5,42 1145.7,42.3 1135.9,45.5 C1126.2,48.7 1123.1,48.5 1121,44.5 C1116.3,35.6 1131.2,27.7 1150.7,28.7 C1158.5,29.1 1160.6,29.7 1165.2,32.2 C1172.6,36.4 1176,42.9 1176,52.7 C1176,65.3 1171.8,70.1 1154.8,76.6 C1141.3,81.8 1140.1,82.4 1138.5,85.6 C1136.7,89.1 1137.6,92.3 1141.1,94 C1145.2,96.2 1150.9,95.8 1159.6,93 C1168.3,90.2 1171.7,90.8 1173.4,95.7 C1174.9,100 1172.9,102.9 1166.3,106.1 C1161.3,108.6 1159.2,109 1150.5,109.2 C1143.9,109.4 1139,109 1136.1,108.1 Z" id="Shape" fill="#2047A6"></path>
                <path d="M396.4,106.4 C394.6,104.4 394.5,102.3 394.5,68.8 L394.5,33.3 L396.9,31.4 C400.1,28.8 404.6,29 407.5,32 L410,34.4 L410,68.8 C410,102.1 409.9,103.3 407.9,105.9 C405.2,109.3 399.3,109.6 396.4,106.4 Z" id="Shape" fill="#2047A6"></path>
                <path d="M423,106.5 C420.3,103.8 420.5,99.9 423.5,97 C425.7,94.7 426.6,94.5 436.4,94.5 L446.9,94.5 L447.2,63.9 L447.5,33.3 L449.9,31.4 C453.1,28.8 457.6,29 460.5,32 L463,34.4 L463,64.5 L463,94.5 L473.1,94.5 C486.1,94.5 489,95.9 489,102.2 C489,108.3 488.1,108.5 454.8,108.5 C426.3,108.5 424.9,108.4 423,106.5 Z" id="Shape" fill="#2047A6"></path>
                <path d="M502.7,106.7 C501.2,105 501,100.9 501,68.8 C501,35.2 501.1,32.7 502.8,31.2 C505.1,29.1 509.9,29 512.6,30.9 C514.4,32.2 514.5,34 515,55.1 L515.5,77.9 L523,66.1 C531,53.4 532.9,51.5 537.2,51.5 C540.9,51.5 542.4,53.1 550.5,66.5 L557.5,77.9 L558,55.6 C558.5,33.7 558.5,33.3 560.9,31.4 C564.1,28.8 568.6,29 571.5,32 L574,34.4 L574,68.5 C574,102.3 573.7,105.7 570.6,107.7 C569.3,108.6 564.7,108.7 562.6,107.9 C561.7,107.6 556.2,99.6 550.3,90.1 C544.5,80.7 539.2,72.2 538.5,71.3 C537.6,69.9 535.7,72.2 526,87.6 C519.7,97.5 513.7,106.3 512.6,107.1 C509.7,109.1 504.6,108.9 502.7,106.7 Z" id="Shape" fill="#2047A6"></path>
                <path d="M714.4,106.4 C712.7,104.5 712.5,102.3 712.2,82.8 C712,70.6 712.4,58.2 713,54.3 C715.7,36.9 725.4,28.5 743,28.5 C756.5,28.5 765.5,33.5 770.1,43.8 C772.4,48.8 772.5,50 772.8,76.9 C773.2,108.3 773.1,108.5 766,108.5 C759.3,108.5 759.2,108.1 758.8,79.5 C758.5,55.6 758.3,53.7 756.3,49.9 C750.9,39.7 735,40 729.8,50.5 C728.2,53.6 728,57.2 728,78.6 C728,102 727.9,103.4 725.9,105.9 C723.2,109.3 717.3,109.6 714.4,106.4 Z" id="Shape" fill="#2047A6"></path>
                <path d="M794.6,106.3 C793.2,104.4 793,99.1 793,68.8 C793,34.8 793.1,33.4 795,31.5 C797.3,29.2 801.8,28.9 804.6,30.9 C806.4,32.2 806.5,34 807,56.1 L807.5,79.9 L824.9,56.6 C834.5,43.9 843.4,32.5 844.8,31.5 C848.3,28.7 852.4,28.9 854.9,32.1 C856.9,34.7 857,35.9 857,69.4 C857,108.6 857,108.5 850.1,108.5 C843.1,108.5 843,108 843,81 L843,57.2 L824.9,81.6 C815,95 806.1,106.6 805.2,107.3 C802.5,109.4 796.3,108.8 794.6,106.3 Z" id="Shape" fill="#2047A6"></path>
                <path d="M878.4,106.4 C876.6,104.4 876.5,102.3 876.5,68.8 L876.5,33.3 L878.9,31.4 C882.1,28.8 886.6,29 889.5,32 L892,34.4 L892,68.8 C892,102.1 891.9,103.3 889.9,105.9 C887.2,109.3 881.3,109.6 878.4,106.4 Z" id="Shape" fill="#2047A6"></path>
                <path d="M907,106.7 C902.9,103.4 903.9,99.9 918,65.7 C925.3,47.9 932.2,32.3 933.2,30.9 C936.5,26.8 943,27.7 945.6,32.6 C949.2,39.7 972,99.8 972,102.3 C972,103.9 971.2,105.9 970.2,106.8 C967.6,109.2 962.4,109 960.2,106.5 C959.3,105.4 954.2,92.8 948.9,78.5 L939.4,52.5 L929.1,78.6 C923.4,93 917.9,105.6 916.9,106.6 C914.5,109 909.9,109 907,106.7 Z" id="Shape" fill="#2047A6"></path>
                <path d="M986.2,106.9 L984,105.4 L984,69.4 C984,34.8 984.1,33.4 986,31.5 C987.9,29.6 989.3,29.5 1010.9,29.5 L1033.9,29.5 L1035.9,32.1 C1037.1,33.6 1038,35.5 1038,36.5 C1038,37.5 1037.1,39.4 1035.9,40.9 L1033.9,43.5 L1016.4,43.5 L999,43.5 L999,53.5 L999,63.5 L1012.8,63.5 C1028.8,63.5 1030.4,64.2 1029.8,71.1 C1029.4,76.7 1027.1,77.5 1011.8,77.5 L999,77.5 L999,86 L999,94.5 L1015.3,94.5 C1034.2,94.5 1036,95.1 1036,101.4 C1036,108.3 1035.3,108.5 1010.4,108.5 C992.1,108.5 988.1,108.2 986.2,106.9 Z" id="Shape" fill="#2047A6"></path>
                <path d="M1192,106.5 C1190.1,104.6 1190,103.2 1190,69 C1190,34.8 1190.1,33.4 1192,31.5 C1193.2,30.3 1195.3,29.5 1197.5,29.5 C1199.7,29.5 1201.8,30.3 1203,31.5 C1204.9,33.4 1205,34.8 1205,69 C1205,103.2 1204.9,104.6 1203,106.5 C1201.8,107.7 1199.7,108.5 1197.5,108.5 C1195.3,108.5 1193.2,107.7 1192,106.5 Z" id="Shape" fill="#2047A6"></path>
                <path d="M1218.7,106.7 C1217.7,105.7 1217,103.2 1217,101.2 C1217,95.6 1219.4,94.5 1232.2,94.5 L1243,94.5 L1243,64 C1243,34.8 1243.1,33.4 1245,31.5 C1246.2,30.3 1248.3,29.5 1250.5,29.5 C1252.7,29.5 1254.8,30.3 1256,31.5 C1257.9,33.4 1258,34.8 1258,64 L1258,94.5 L1268.8,94.5 C1281.7,94.5 1284,95.5 1284,101.4 C1284,108.5 1284.2,108.5 1250.3,108.5 C1222.5,108.5 1220.2,108.4 1218.7,106.7 Z" id="Shape" fill="#2047A6"></path>
                <path d="M1296.1,105.9 C1292.4,101.2 1293,99.6 1306.7,80.2 L1317.5,65 L1318,49.2 C1318.5,34 1318.6,33.2 1320.9,31.4 C1324.1,28.8 1328.6,29 1331.5,32 C1333.9,34.3 1334,34.8 1334,49.2 L1334,64 L1345.6,81.4 C1355.6,96.6 1357.1,99.3 1356.8,102.4 C1356.6,105 1355.8,106.3 1353.8,107.4 C1348.8,110.3 1346.4,108.3 1336.5,93.3 C1331.5,85.8 1327.2,79.3 1326.9,79 C1326.6,78.7 1322.1,84.8 1317,92.5 C1311.8,100.3 1306.8,107 1305.9,107.6 C1302.5,109.4 1298.3,108.6 1296.1,105.9 Z" id="Shape" fill="#2047A6"></path>
                <path d="M8.5,102.1 C3.2,99.7 0.7,96.1 0.2,90.1 C-0.1,85.7 0.2,83.9 1.9,81.2 C7.2,72.6 21,72.5 26.1,80.9 C29.1,85.8 28.7,93.5 25.3,97.6 C20.7,103 14.4,104.7 8.5,102.1 Z" id="Shape" fill="#2047A6"></path>
                <path d="M87,101.7 C70.4,93.4 82.2,68.7 99.4,75.9 C110.1,80.4 110.3,96.7 99.8,101.5 C94.5,103.9 91.5,104 87,101.7 Z" id="Shape" fill="#2047A6"></path>
                <path d="M168.2,102.8 C164.8,102.1 159.2,96 158.5,92.1 C156.5,81.7 165.1,73 175.4,74.9 C185.9,76.9 190.4,90.1 183.4,98.4 C180,102.5 174.6,104 168.2,102.8 Z" id="Shape" fill="#2047A6"></path>
                <path d="M245.3,101.6 C235.2,96.9 235.1,81.3 245,76.3 C254.7,71.4 266,78.3 266,89 C266,99.7 255.2,106.2 245.3,101.6 Z" id="Shape" fill="#2047A6"></path>
                <path d="M47.4,82.1 C40.4,79 37.5,70.6 40.9,63.1 C42.6,59.3 43.8,58 47.6,56.4 C55.1,53.1 62,55.1 66,61.8 C73.2,73.5 60.2,87.7 47.4,82.1 Z" id="Shape" fill="#FF002E"></path>
                <path d="M126.1,81.8 C121.5,79.5 119,75.1 119,69.2 C119,62.9 121.3,59 126.5,56.5 C131.4,54.1 133.9,54 138.3,55.9 C143.6,58.1 146.2,61.8 146.8,67.6 C147.4,74.1 145.3,78.4 140,81.4 C135.5,83.9 130.7,84.1 126.1,81.8 Z" id="Shape" fill="#2047A6"></path>
                <path d="M205.5,81.6 C200.7,78.7 198.8,75.9 198.3,71.1 C197,59.6 206.8,51.9 217.5,55.9 C223.2,58.1 226,62.5 226,69.1 C226,75.2 223.5,79.6 218.7,81.8 C214.1,84 209.2,83.9 205.5,81.6 Z" id="Shape" fill="#2047A6"></path>
                <path d="M284.5,76 C282.6,74.2 282,72.5 282,69.3 C282.1,64.7 283.2,62.5 286.7,60.7 C290.6,58.6 294.9,59.3 298.1,62.4 C301.9,66.3 302,71.1 298.4,75.4 C296.2,78 295.1,78.5 291.4,78.5 C288,78.5 286.3,77.9 284.5,76 Z" id="Shape" fill="#2047A6"></path>
                <path d="M87.5,62.5 C86.4,62.1 84.2,60.3 82.6,58.7 C78.9,54.7 78,47.6 80.7,42.5 C85.6,33.1 100.1,32.7 105.6,41.9 C107.9,45.8 108,53.4 105.6,56.9 C102,62.5 93.6,65.1 87.5,62.5 Z" id="Shape" fill="#2047A6"></path>
                <path d="M164.9,61.2 C154.6,54.4 156.8,38.8 168.6,35.6 C179.1,32.8 188.6,41.4 186.6,52 C184.7,61.7 173.1,66.7 164.9,61.2 Z" id="Shape" fill="#2047A6"></path>
                <path d="M7.3,56.3 C6.2,55 4.9,53 4.5,51.7 C3.5,48.2 5.8,42.7 9,41 C19.4,35.6 28.7,47.7 20.8,56.3 C19.2,58 17.5,58.5 14,58.5 C10.5,58.5 8.9,58 7.3,56.3 Z" id="Shape" fill="#2047A6"></path>
                <path d="M245.9,57.2 C238.9,51.8 241.8,41 250.6,39.8 C253.9,39.4 255.1,39.7 257.8,42 C260.5,44.3 261,45.3 261,49.1 C261,55.3 257.8,58.5 251.8,58.5 C249.4,58.5 246.8,57.9 245.9,57.2 Z" id="Shape" fill="#2047A6"></path>
                <path d="M128.5,38.1 C121.2,34.9 121.5,23.6 128.9,20.5 C135.4,17.8 142.5,22.5 142.5,29.6 C142.5,36.6 135.1,41.1 128.5,38.1 Z" id="Shape" fill="#2047A6"></path>
                <path d="M208.5,38.6 C202.5,36.1 200.6,27.7 204.9,23.1 C209.5,18.2 217.6,18.9 220.5,24.6 C223.4,30.1 221.2,36.5 215.9,38.4 C212.2,39.7 211.3,39.7 208.5,38.6 Z" id="Shape" fill="#2047A6"></path>
                <path d="M87.2,17 C84.6,14.8 84,13.6 84,10.3 C84,5 85.4,2.6 89.7,0.9 C96.5,-2 103,2.7 103,10.4 C103,14.7 99.3,18.5 94.4,19.2 C91.1,19.6 89.9,19.3 87.2,17 Z" id="Shape" fill="#2047A6"></path>
                <path d="M165.9,16.6 C160.8,11.5 162.2,3.6 168.7,0.9 C172.9,-0.9 178.1,0.4 180.5,3.8 C184.8,10 180,19.5 172.5,19.5 C169.8,19.5 168.1,18.7 165.9,16.6 Z" id="Shape" fill="#2047A6"></path>
            </g>
        </g>
    </g>
</svg>