<?xml version="1.0" encoding="UTF-8"?>
<svg width="310px" height="140px" viewBox="0 0 310 140" version="1.1" xmlns="http://www.w3.org/2000/svg" xmlns:xlink="http://www.w3.org/1999/xlink">
    <!-- Generator: Sketch 46.2 (44496) - http://www.bohemiancoding.com/sketch -->
    <title>itmo_ru</title>
    <desc>Created with Sketch.</desc>
    <defs></defs>
    <g id="Page-1" stroke="none" stroke-width="1" fill="none" fill-rule="evenodd">
        <g id="itmo_ru" fill-rule="nonzero">
            <g id="Group" transform="translate(155.000000, 70.000000) scale(-1, 1) rotate(-180.000000) translate(-155.000000, -70.000000) translate(0.000000, -0.000000)">
                <path d="M252.3,139.3 C251.1,139.1 248.9,137.5 247.4,135.7 C245.2,133.1 244.9,131.9 245.3,128.6 C246.9,117 263.1,117 264.7,128.6 C265.2,132.2 264.8,133.1 262.4,135.8 C259.4,138.9 256.2,140 252.3,139.3 Z" id="Shape" fill="#2047A6"></path>
                <path d="M48.4,123.1 C45.7,121.9 41.2,116.5 40.4,113.4 C38.8,107 42.1,99.8 48.1,96.8 C54.7,93.4 62.5,95.5 66.8,102 C68.8,104.9 69.1,106.4 68.8,110.8 C68.4,115.3 67.8,116.7 64.7,119.7 C61.7,122.8 60.4,123.4 55.8,123.7 C52.9,123.8 49.6,123.6 48.4,123.1 Z" id="Shape" fill="#2047A6"></path>
                <path d="M207.5,122.1 C203,119.4 200.8,115.4 200.7,110 C200.6,103.5 203.4,99 209.2,96.6 C215.5,94 220.2,95 225.2,100 C228.6,103.4 229,104.3 229,108.9 C229,115.2 227,119.4 222.7,122 C218.6,124.6 211.5,124.6 207.5,122.1 Z" id="Shape" fill="#2047A6"></path>
                <path d="M287.3,122 C283,119.4 281,115.2 281,108.9 C281,104.3 281.4,103.4 284.8,100 C289.8,95 294.5,94 300.8,96.6 C306.5,99 309.4,103.5 309.4,110.1 C309.4,115.5 307.3,119.2 302.7,122 C298.5,124.6 291.5,124.6 287.3,122 Z" id="Shape" fill="#2047A6"></path>
                <path d="M129.2,118.3 C127.3,117.6 125,112.5 125,109 C125,106.9 125.9,104.9 127.9,102.9 C135.6,95.3 147.8,103.4 143.6,113.3 C142.8,115.3 141.3,117.3 140.2,117.9 C138.1,119 131.5,119.3 129.2,118.3 Z" id="Shape" fill="#2047A6"></path>
                <path d="M9,103.3 C8.2,103 6.4,101.8 5.2,100.6 C-5.5,91 1.8,73.9 15.9,75.3 C29.8,76.8 33.7,94.7 21.8,102 C18.6,103.9 12.4,104.5 9,103.3 Z" id="Shape" fill="#2047A6"></path>
                <path d="M86.9,101.7 C77.5,95.4 78.1,81.8 88.1,76.8 C100.7,70.3 113.9,84.3 107.2,96.9 C103.5,103.8 93.5,106.1 86.9,101.7 Z" id="Shape" fill="#2047A6"></path>
                <path d="M167.3,102 C161,98.2 158.7,91.2 161.5,84.2 C165.5,74.2 177.9,72.1 185.5,80 C189.3,84 190.1,92.8 187.2,97.6 C183.4,103.6 173.5,105.8 167.3,102 Z" id="Shape" fill="#2047A6"></path>
                <path d="M247.3,102 C245.5,101 243.4,98.7 242.5,97.1 C240.5,93.1 240.6,85.5 242.8,81.8 C244.8,78.3 250.7,75 255,75 C259.3,75 265.2,78.3 267.3,81.8 C269.4,85.5 269.5,93.1 267.5,97.1 C265.3,101.3 260.4,104 255,104 C252.3,104 249.2,103.2 247.3,102 Z" id="Shape" fill="#2047A6"></path>
                <path d="M47.2,82 C40.5,77.9 38.2,70 41.8,63.1 C46.8,53.1 60.4,52.5 66.7,61.9 C74.9,74.1 59.8,89.7 47.2,82 Z" id="Shape" fill="#FF002E"></path>
                <path d="M126.9,81.7 C113.7,72.9 121.9,52.5 137.5,55.4 C139.5,55.8 142.8,57.6 144.7,59.4 C147.8,62.2 148.4,63.4 148.7,68.1 C149,72.1 148.6,74.4 147.2,76.9 C143.4,83.8 133.5,86.1 126.9,81.7 Z" id="Shape" fill="#2047A6"></path>
                <path d="M207.3,82 C198.2,76.5 198.6,61.9 208,56.9 C209.9,55.8 213,55 214.8,55 C219.3,55 225.1,58.2 227.3,61.8 C229.6,65.8 229.5,73.6 227.1,77.6 C223.4,83.6 213.5,85.9 207.3,82 Z" id="Shape" fill="#2047A6"></path>
                <path d="M288.3,76.6 C286,74.6 285.5,73.4 285.5,69.5 C285.5,63.5 289,60 295.1,60 C303.7,60 308,69.3 302.4,75.9 C300.2,78.5 299.1,79 295.5,79 C292.3,79 290.3,78.3 288.3,76.6 Z" id="Shape" fill="#2047A6"></path>
                <path d="M86.9,61.7 C77.5,55.4 78.1,41.8 88.1,36.8 C95,33.2 102.8,35.5 107.1,42.2 C109.9,46.8 109.3,55 105.9,58.6 C100.5,64.4 92.8,65.7 86.9,61.7 Z" id="Shape" fill="#2047A6"></path>
                <path d="M168.4,62.6 C157.8,58 157.9,40.8 168.6,36.4 C173.3,34.4 177.6,34.7 182,37.1 C186.8,39.8 189,43.7 189,49.5 C189,60.5 178.7,67 168.4,62.6 Z" id="Shape" fill="#2047A6"></path>
                <path d="M7.5,56.5 C5.6,54.7 5,53 5,49.5 C5,43.2 8.1,40 14.3,40 C20.5,40 24,43.5 24,49.7 C24,55.9 20.8,59 14.5,59 C11,59 9.3,58.4 7.5,56.5 Z" id="Shape" fill="#2047A6"></path>
                <path d="M248.3,56.6 C246,54.6 245.5,53.4 245.5,49.5 C245.5,43.5 249,40 255,40 C261,40 264.5,43.5 264.5,49.5 C264.5,55.5 261,59 255,59 C252.3,59 250.2,58.2 248.3,56.6 Z" id="Shape" fill="#2047A6"></path>
                <path d="M127.6,35.9 C125.9,34 125,31.6 125,29.5 C125,27.4 125.9,25 127.6,23.1 C129.7,20.6 130.9,20 134.2,20 C139.5,20 141.9,21.4 143.6,25.7 C144.8,28.4 144.9,29.9 144,32.6 C142.5,37 139.5,39 134.4,39 C130.9,39 129.7,38.5 127.6,35.9 Z" id="Shape" fill="#2047A6"></path>
                <path d="M207.9,36.1 C199.1,27.2 212.2,14.2 221.7,22.4 C224,24.4 224.5,25.6 224.5,29.5 C224.5,33.4 224,34.6 221.7,36.6 C217.6,40.1 211.8,39.9 207.9,36.1 Z" id="Shape" fill="#2047A6"></path>
                <path d="M87.6,15.9 C81.8,9 85.8,0 94.7,0 C100.9,0 104,3.2 104,9.5 C104,15.8 100.9,19 94.6,19 C90.9,19 89.8,18.5 87.6,15.9 Z" id="Shape" fill="#2047A6"></path>
                <path d="M167.9,16.1 C164.1,12.2 164,7.4 167.6,3.1 C169.7,0.5 170.9,0 174.5,0 C182.5,0 187.1,7 183.6,13.8 C180.4,19.9 172.8,21 167.9,16.1 Z" id="Shape" fill="#2047A6"></path>
            </g>
        </g>
    </g>
</svg>