<?xml version="1.0" encoding="UTF-8"?>
<svg width="28px" height="28px" viewBox="0 0 28 28" version="1.1" xmlns="http://www.w3.org/2000/svg" xmlns:xlink="http://www.w3.org/1999/xlink">
    <!-- Generator: Sketch 46.2 (44496) - http://www.bohemiancoding.com/sketch -->
    <title>usa</title>
    <desc>Created with Sketch.</desc>
    <defs></defs>
    <g id="Page-1" stroke="none" stroke-width="1" fill="none" fill-rule="evenodd">
        <g id="usa" fill-rule="nonzero">
            <circle id="Oval" fill="#F0F0F0" cx="14" cy="14" r="14"></circle>
            <g id="Group" transform="translate(0.437500, 3.007812)" fill="#D80027">
                <path d="M12.9538281,10.9921875 L27.5625,10.9921875 C27.5625,9.72857813 27.3940625,8.50445312 27.0802109,7.33999219 L12.9538281,7.33999219 L12.9538281,10.9921875 Z" id="Shape"></path>
                <path d="M12.9538281,3.68785156 L25.5076719,3.68785156 C24.6506641,2.28938281 23.5548906,1.05328125 22.2772813,0.03565625 L12.9538281,0.03565625 L12.9538281,3.68785156 Z" id="Shape"></path>
                <path d="M13.5625,24.9921875 C16.8573672,24.9921875 19.8857969,23.853375 22.2772813,21.9487188 L4.84771875,21.9487188 C7.23920313,23.853375 10.2676328,24.9921875 13.5625,24.9921875 Z" id="Shape"></path>
                <path d="M1.61732812,18.2965234 L25.5076719,18.2965234 C26.1956953,17.1738437 26.7292812,15.9466563 27.0802109,14.6443281 L0.0447890625,14.6443281 C0.39571875,15.9466563 0.929304688,17.1738437 1.61732812,18.2965234 Z" id="Shape"></path>
            </g>
            <path d="M6.4850625,2.18629688 L7.76086719,2.18629688 L6.57414844,3.04844531 L7.02745313,4.44346875 L5.84078906,3.58132031 L4.654125,4.44346875 L5.0456875,3.23832031 C4.00082812,4.10867187 3.08503125,5.128375 2.33034375,6.2645625 L2.73913281,6.2645625 L1.98373438,6.81335156 C1.86604687,7.00967969 1.75317188,7.209125 1.645,7.41152344 L2.00571875,8.52173437 L1.33273438,8.03277344 C1.16544531,8.38720312 1.01242969,8.74961719 0.874890625,9.11957812 L1.27230469,10.3428281 L2.73913281,10.3428281 L1.55241406,11.2049766 L2.00571875,12.6 L0.819054687,11.7378516 L0.108226563,12.2543203 C0.037078125,12.8262422 0,13.4087734 0,14 L14,14 C14,6.2680625 14,5.35653125 14,0 C11.2343438,0 8.65621094,0.802265625 6.4850625,2.18629688 Z M7.02745313,12.6 L5.84078906,11.7378516 L4.654125,12.6 L5.10742969,11.2049766 L3.92071094,10.3428281 L5.38753906,10.3428281 L5.84078906,8.94780469 L6.29403906,10.3428281 L7.76086719,10.3428281 L6.57414844,11.2049766 L7.02745313,12.6 Z M6.57414844,7.12671094 L7.02745312,8.52173438 L5.84078906,7.65958594 L4.654125,8.52173438 L5.10742969,7.12671094 L3.92071094,6.2645625 L5.38753906,6.2645625 L5.84078906,4.86953906 L6.29403906,6.2645625 L7.76086719,6.2645625 L6.57414844,7.12671094 Z M12.0491875,12.6 L10.8625234,11.7378516 L9.67585938,12.6 L10.1291641,11.2049766 L8.94244531,10.3428281 L10.4092734,10.3428281 L10.8625234,8.94780469 L11.3157734,10.3428281 L12.7826016,10.3428281 L11.5958828,11.2049766 L12.0491875,12.6 Z M11.5958828,7.12671094 L12.0491875,8.52173438 L10.8625234,7.65958594 L9.67585937,8.52173438 L10.1291641,7.12671094 L8.94244531,6.2645625 L10.4092734,6.2645625 L10.8625234,4.86953906 L11.3157734,6.2645625 L12.7826016,6.2645625 L11.5958828,7.12671094 Z M11.5958828,3.04844531 L12.0491875,4.44346875 L10.8625234,3.58132031 L9.67585938,4.44346875 L10.1291641,3.04844531 L8.94244531,2.18629688 L10.4092734,2.18629688 L10.8625234,0.791273437 L11.3157734,2.18629688 L12.7826016,2.18629688 L11.5958828,3.04844531 Z" id="Shape" fill="#0052B4"></path>
        </g>
    </g>
</svg>